<svg xmlns:xlink="http://www.w3.org/1999/xlink" width="13.26ex" height="3.009ex" style="font-size: 15px; vertical-align: -0.671ex;" viewBox="0 -1006.6 5709 1295.7" role="img" focusable="false" xmlns="http://www.w3.org/2000/svg">
<defs>
<path stroke-width="1" id="E1-MJMATHBI-51" d="M53 245Q53 297 70 356T125 478T216 590T349 671T523 703Q656 703 735 637T815 445Q815 410 808 370T781 277T729 178T643 87T519 14L525 4Q540 -19 553 -25T592 -32Q632 -32 654 -24T680 -7T689 10T704 18Q713 18 717 12T722 0Q722 -8 711 -36T681 -101T624 -166T541 -194Q513 -194 494 -183T465 -157T450 -118T444 -79T443 -41V-7L433 -9Q391 -17 344 -17Q301 -17 263 -10T185 15T118 62T71 138T53 245ZM666 482Q666 529 652 563T614 615T565 640T512 648Q412 648 335 573Q268 506 235 389T201 202Q201 164 210 136T230 95T259 66L262 76Q269 109 302 135T382 162Q401 162 415 159T449 140T484 92L491 78L496 82Q502 86 505 88T515 97T528 107T541 120T555 137T570 156T585 179T599 205T612 235Q629 278 647 351T666 482ZM439 56Q439 58 439 62T435 75T426 92T410 106T383 112Q353 112 332 96T311 63Q311 38 355 38H366Q391 39 415 45T439 56Z"></path>
<path stroke-width="1" id="E1-MJMAIN-2C" d="M78 35T78 60T94 103T137 121Q165 121 187 96T210 8Q210 -27 201 -60T180 -117T154 -158T130 -185T117 -194Q113 -194 104 -185T95 -172Q95 -168 106 -156T131 -126T157 -76T173 -3V9L172 8Q170 7 167 6T161 3T152 1T140 0Q113 0 96 17Z"></path>
<path stroke-width="1" id="E1-MJMATHBI-4B" d="M536 0Q522 6 522 18Q522 35 533 57Q539 62 557 62Q595 62 601 65L472 330L365 255L342 160Q318 65 317 64Q317 62 361 62H388Q420 62 420 44Q416 6 403 2L399 0L357 1Q331 2 224 2Q149 2 109 1T65 0Q48 0 43 15Q47 54 60 60Q64 62 113 62H162L302 623Q302 624 258 624H235Q214 624 209 626T199 639Q203 678 216 684Q220 686 239 686Q290 684 403 684Q475 684 512 685T553 686Q576 686 576 668Q572 632 560 626Q555 624 506 624H457L422 481Q386 339 386 337L785 621Q779 624 749 624Q726 624 726 641Q726 645 730 659Q734 675 736 679T747 686L786 685Q812 684 888 684Q908 684 934 685T968 686Q1003 686 1003 669Q1003 646 991 629Q985 624 967 624Q918 624 888 617Q884 617 874 613L865 609Q864 608 732 515T599 420Q599 418 686 242T775 65Q784 62 829 62Q847 62 850 61T860 54Q862 52 862 43Q862 10 845 1Q844 1 842 1T836 0T797 1T694 2Q599 2 573 1L536 0Z"></path>
<path stroke-width="1" id="E1-MJMAIN-2208" d="M84 250Q84 372 166 450T360 539Q361 539 377 539T419 540T469 540H568Q583 532 583 520Q583 511 570 501L466 500Q355 499 329 494Q280 482 242 458T183 409T147 354T129 306T124 272V270H568Q583 262 583 250T568 230H124V228Q124 207 134 177T167 112T231 48T328 7Q355 1 466 0H570Q583 -10 583 -20Q583 -32 568 -40H471Q464 -40 446 -40T417 -41Q262 -41 172 45Q84 127 84 250Z"></path>
<path stroke-width="1" id="E1-MJAMS-52" d="M17 665Q17 672 28 683H221Q415 681 439 677Q461 673 481 667T516 654T544 639T566 623T584 607T597 592T607 578T614 565T618 554L621 548Q626 530 626 497Q626 447 613 419Q578 348 473 326L455 321Q462 310 473 292T517 226T578 141T637 72T686 35Q705 30 705 16Q705 7 693 -1H510Q503 6 404 159L306 310H268V183Q270 67 271 59Q274 42 291 38Q295 37 319 35Q344 35 353 28Q362 17 353 3L346 -1H28Q16 5 16 16Q16 35 55 35Q96 38 101 52Q106 60 106 341T101 632Q95 645 55 648Q17 648 17 665ZM241 35Q238 42 237 45T235 78T233 163T233 337V621L237 635L244 648H133Q136 641 137 638T139 603T141 517T141 341Q141 131 140 89T134 37Q133 36 133 35H241ZM457 496Q457 540 449 570T425 615T400 634T377 643Q374 643 339 648Q300 648 281 635Q271 628 270 610T268 481V346H284Q327 346 375 352Q421 364 439 392T457 496ZM492 537T492 496T488 427T478 389T469 371T464 361Q464 360 465 360Q469 360 497 370Q593 400 593 495Q593 592 477 630L457 637L461 626Q474 611 488 561Q492 537 492 496ZM464 243Q411 317 410 317Q404 317 401 315Q384 315 370 312H346L526 35H619L606 50Q553 109 464 243Z"></path>
<path stroke-width="1" id="E1-MJMATHI-6E" d="M21 287Q22 293 24 303T36 341T56 388T89 425T135 442Q171 442 195 424T225 390T231 369Q231 367 232 367L243 378Q304 442 382 442Q436 442 469 415T503 336T465 179T427 52Q427 26 444 26Q450 26 453 27Q482 32 505 65T540 145Q542 153 560 153Q580 153 580 145Q580 144 576 130Q568 101 554 73T508 17T439 -10Q392 -10 371 17T350 73Q350 92 386 193T423 345Q423 404 379 404H374Q288 404 229 303L222 291L189 157Q156 26 151 16Q138 -11 108 -11Q95 -11 87 -5T76 7T74 17Q74 30 112 180T152 343Q153 348 153 366Q153 405 129 405Q91 405 66 305Q60 285 60 284Q58 278 41 278H27Q21 284 21 287Z"></path>
<path stroke-width="1" id="E1-MJMAIN-D7" d="M630 29Q630 9 609 9Q604 9 587 25T493 118L389 222L284 117Q178 13 175 11Q171 9 168 9Q160 9 154 15T147 29Q147 36 161 51T255 146L359 250L255 354Q174 435 161 449T147 471Q147 480 153 485T168 490Q173 490 175 489Q178 487 284 383L389 278L493 382Q570 459 587 475T609 491Q630 491 630 471Q630 464 620 453T522 355L418 250L522 145Q606 61 618 48T630 29Z"></path>
<path stroke-width="1" id="E1-MJMATHI-64" d="M366 683Q367 683 438 688T511 694Q523 694 523 686Q523 679 450 384T375 83T374 68Q374 26 402 26Q411 27 422 35Q443 55 463 131Q469 151 473 152Q475 153 483 153H487H491Q506 153 506 145Q506 140 503 129Q490 79 473 48T445 8T417 -8Q409 -10 393 -10Q359 -10 336 5T306 36L300 51Q299 52 296 50Q294 48 292 46Q233 -10 172 -10Q117 -10 75 30T33 157Q33 205 53 255T101 341Q148 398 195 420T280 442Q336 442 364 400Q369 394 369 396Q370 400 396 505T424 616Q424 629 417 632T378 637H357Q351 643 351 645T353 664Q358 683 366 683ZM352 326Q329 405 277 405Q242 405 210 374T160 293Q131 214 119 129Q119 126 119 118T118 106Q118 61 136 44T179 26Q233 26 290 98L298 109L352 326Z"></path>
</defs>
<g stroke="currentColor" fill="currentColor" stroke-width="0" transform="matrix(1 0 0 -1 0 0)">
 <use xlink:href="#E1-MJMATHBI-51" x="0" y="0"></use>
 <use xlink:href="#E1-MJMAIN-2C" x="869" y="0"></use>
 <use xlink:href="#E1-MJMATHBI-4B" x="1314" y="0"></use>
 <use xlink:href="#E1-MJMAIN-2208" x="2595" y="0"></use>
<g transform="translate(3541,0)">
 <use xlink:href="#E1-MJAMS-52" x="0" y="0"></use>
<g transform="translate(722,412)">
 <use transform="scale(0.707)" xlink:href="#E1-MJMATHI-6E" x="0" y="0"></use>
 <use transform="scale(0.707)" xlink:href="#E1-MJMAIN-D7" x="600" y="0"></use>
 <use transform="scale(0.707)" xlink:href="#E1-MJMATHI-64" x="1379" y="0"></use>
</g>
</g>
</g>
</svg>